<svg width="129" height="74" viewBox="0 0 129 74" fill="none" xmlns="http://www.w3.org/2000/svg">
<g clip-path="url(#clip0_711_1561)">
<path fill-rule="evenodd" clip-rule="evenodd" d="M29.3575 -0.00412857C29.3705 -0.00624734 29.3838 -0.00387273 29.3954 0.00262367C29.407 0.00912006 29.4161 0.0193708 29.4214 0.0317671C29.4267 0.0441635 29.4278 0.058005 29.4246 0.0711201C29.4214 0.0842352 29.414 0.0958796 29.4036 0.104232C17.0145 11.1494 11.5752 23.9106 15.3961 38.3918C19.5553 54.1773 30.1532 62.5055 45.456 64.6471C45.4698 64.6497 45.4822 64.6571 45.4911 64.6681C45.5001 64.6791 45.505 64.6929 45.505 64.7072C45.505 64.7215 45.5001 64.7354 45.4911 64.7464C45.4822 64.7573 45.4698 64.7648 45.456 64.7673C33.1399 66.4558 20.3107 59.6014 13.6587 47.6007C6.79333 35.2177 7.9715 19.6233 16.7223 8.74765C20.0992 4.55697 24.4333 0.839132 29.3575 -0.00412857Z" fill="white"/>
<path fill-rule="evenodd" clip-rule="evenodd" d="M58.1848 3.98791C58.1952 3.99671 58.2023 4.00885 58.205 4.02234C58.2078 4.03582 58.206 4.04987 58.2 4.0622C58.194 4.07453 58.1841 4.08441 58.1719 4.09024C58.1597 4.09606 58.146 4.09749 58.1329 4.0943C45.1153 1.44039 34.1196 4.96711 27.1639 15.0114C20.3582 25.6506 20.8367 38.4118 26.6008 48.2118C26.6077 48.2242 26.6102 48.2388 26.6077 48.253C26.6052 48.2671 26.5979 48.2799 26.5871 48.2891C26.5763 48.2983 26.5627 48.3033 26.5487 48.3032C26.5347 48.3031 26.5211 48.2979 26.5105 48.2886C19.0743 41.1583 16.6314 29.2699 20.5677 18.6996C24.6384 7.76287 34.9057 0.376465 46.2051 0.376465C50.5488 0.390256 55.0943 1.5724 58.1848 3.98791Z" fill="white"/>
<path fill-rule="evenodd" clip-rule="evenodd" d="M69.8713 20.8175C69.8734 20.8306 69.8714 20.8441 69.8656 20.8559C69.8598 20.8678 69.8505 20.8775 69.839 20.8836C69.8274 20.8898 69.8143 20.892 69.8015 20.89C69.7887 20.888 69.7768 20.882 69.7676 20.8727C62.0911 12.2036 52.7195 8.85423 42.8808 12.1445C32.1754 15.7225 26.8149 23.6605 25.8578 34.7667C25.8553 34.7808 25.8481 34.7935 25.8373 34.8027C25.8266 34.8119 25.8131 34.8169 25.7992 34.8169C25.7852 34.8169 25.7717 34.8119 25.761 34.8027C25.7503 34.7935 25.743 34.7808 25.7405 34.7667C24.203 25.9322 28.4621 16.4436 36.4633 11.2146C44.7644 5.78854 55.5756 6.08014 63.3904 12.0342C66.3906 14.3275 68.993 17.7833 69.8713 20.8175Z" fill="white"/>
<path fill-rule="evenodd" clip-rule="evenodd" d="M69.5858 38.5162C69.5858 38.5773 69.482 38.5635 69.4724 38.5024C67.8637 28.5251 62.5879 21.5998 53.9485 19.2572C44.5539 16.7077 37.035 19.8758 31.2691 27.4494C31.2601 27.4602 31.2477 27.4675 31.2341 27.47C31.2204 27.4725 31.2064 27.47 31.1943 27.463C31.1822 27.456 31.1729 27.4449 31.168 27.4316C31.163 27.4184 31.1628 27.4037 31.1672 27.3903C34.1059 20.26 41.5306 15.4487 49.7182 15.4999C58.2307 15.5531 65.9475 20.9653 68.8958 29.0512C70.0163 32.1445 69.9491 36.2031 69.5858 38.5162Z" fill="white"/>
<path fill-rule="evenodd" clip-rule="evenodd" d="M8.95814 9.52006C8.97561 9.50704 8.99674 9.50018 9.01834 9.5005C9.03995 9.50082 9.06087 9.50831 9.07797 9.52185C9.09507 9.53539 9.10744 9.55424 9.11321 9.57559C9.11898 9.59693 9.11784 9.61962 9.10997 9.64025C1.8833 27.5989 3.65729 44.3735 15.4525 57.1544C28.2895 71.0564 43.7058 73.6571 60.6193 67.2341C60.6306 67.2279 60.6431 67.2241 60.6559 67.2228C60.6687 67.2215 60.6816 67.2228 60.6939 67.2267C60.7062 67.2305 60.7177 67.2368 60.7276 67.2452C60.7376 67.2536 60.7458 67.2639 60.7519 67.2755C60.7579 67.2871 60.7617 67.2999 60.7629 67.313C60.7642 67.3262 60.7629 67.3394 60.7592 67.352C60.7554 67.3647 60.7493 67.3764 60.7411 67.3866C60.7329 67.3968 60.7229 67.4052 60.7115 67.4114C48.8913 76.0588 31.9951 76.246 18.6584 67.6676C4.82009 58.77 -2.42965 41.9541 0.722414 25.7016C1.94095 19.4816 5.26984 12.1365 8.95814 9.52006Z" fill="white"/>
<path d="M58.6875 43.5381H81.119V47.8312H72.3086V71.9449H67.4594V47.8371H58.6875V43.5381Z" fill="white"/>
<path d="M101.487 52.5716C101.293 51.784 101.006 51.0233 100.634 50.3058C100.279 49.6259 99.8058 49.0189 99.2368 48.5149C98.6487 47.9958 97.9706 47.5948 97.2379 47.3327C96.3815 47.0394 95.4826 46.8982 94.5798 46.915C93.1063 46.915 91.8326 47.2198 90.7589 47.8292C89.707 48.4187 88.8081 49.2578 88.1373 50.2762C87.4478 51.34 86.9426 52.5177 86.6439 53.7576C85.9981 56.3676 85.9981 59.1015 86.6439 61.7115C86.9405 62.9576 87.4458 64.1415 88.1373 65.2106C88.8079 66.2287 89.7069 67.0672 90.7589 67.6557C91.8288 68.2664 93.1024 68.5712 94.5798 68.5698C95.5661 68.5906 96.5452 68.3945 97.4513 67.9945C98.264 67.6188 98.9913 67.0732 99.5866 66.3927C100.191 65.6998 100.664 64.8982 100.984 64.0285C101.327 63.0941 101.548 62.1178 101.643 61.1243H106.377C106.295 62.729 105.933 64.3056 105.31 65.78C104.728 67.1454 103.891 68.381 102.846 69.417C101.795 70.4472 100.554 71.2512 99.1945 71.7813C97.721 72.3519 96.1567 72.6359 94.5817 72.6187C92.6616 72.6502 90.7583 72.2465 89.008 71.4365C87.4088 70.6891 85.9856 69.5971 84.8353 68.2349C83.6752 66.8449 82.7859 65.2397 82.2157 63.5063C81.001 59.7761 81.001 55.7423 82.2157 52.012C82.7859 50.2786 83.6752 48.6734 84.8353 47.2835C85.9883 45.9187 87.4104 44.8201 89.008 44.0602C90.7558 43.2415 92.6603 42.8342 94.5817 42.8682C96.0677 42.8581 97.5465 43.0794 98.9677 43.5243C100.279 43.9308 101.508 44.5776 102.594 45.4334C103.635 46.2602 104.5 47.2952 105.137 48.4755C105.805 49.7436 106.214 51.138 106.339 52.5735L101.487 52.5716Z" fill="white"/>
<path d="M117.476 55.6355C118.204 55.6618 118.933 55.6083 119.65 55.4759C120.33 55.3594 120.986 55.1241 121.589 54.7804C122.156 54.45 122.631 53.975 122.967 53.4012C123.334 52.7498 123.516 52.0057 123.492 51.2537C123.492 50.0597 123.097 49.1048 122.308 48.3889C121.518 47.6731 120.503 47.3158 119.261 47.3171C118.59 47.2934 117.923 47.4434 117.323 47.7533C116.722 48.0632 116.208 48.523 115.827 49.0903C115.446 49.6451 115.164 50.2639 114.993 50.9187C114.811 51.5992 114.732 52.3042 114.76 53.0091H110.339C110.377 51.7234 110.626 50.4534 111.074 49.2519C111.487 48.1441 112.099 47.1257 112.878 46.2493C113.655 45.3904 114.602 44.7119 115.656 44.2593C116.823 43.7638 118.077 43.5184 119.34 43.5382C120.398 43.5367 121.451 43.6968 122.463 44.013C123.451 44.3149 124.383 44.7859 125.218 45.406C126.039 46.0195 126.713 46.8174 127.188 47.7388C127.693 48.7394 127.946 49.8535 127.924 50.9798C127.953 52.272 127.631 53.5472 126.993 54.6622C126.372 55.713 125.402 56.4748 124.084 56.9476V57.0265C125.551 57.2904 126.855 58.1408 127.71 59.3907C128.577 60.6517 129.01 62.1832 129.012 63.9853C129.034 65.2177 128.771 66.438 128.243 67.5455C127.738 68.5775 127.023 69.486 126.146 70.2093C125.228 70.9634 124.184 71.5396 123.065 71.9096C120.516 72.7363 117.775 72.701 115.246 71.8091C114.131 71.3875 113.123 70.7141 112.296 69.8389C111.489 68.9616 110.873 67.9178 110.491 66.7771C110.063 65.4958 109.84 64.1517 109.832 62.7973H114.253C114.201 64.4956 114.609 65.9076 115.477 67.0333C116.344 68.1589 117.644 68.7224 119.377 68.7237C120.85 68.7237 122.085 68.2929 123.082 67.4313C124.079 66.5696 124.577 65.3435 124.576 63.7528C124.576 62.6626 124.369 61.8003 123.955 61.1659C123.551 60.5387 122.988 60.0371 122.325 59.7158C121.611 59.3743 120.843 59.1668 120.057 59.1031C119.199 59.0241 118.337 58.9977 117.476 59.0243V55.6355Z" fill="white"/>
</g>
<defs>
<clipPath id="clip0_711_1561">
<rect width="129" height="74" fill="white"/>
</clipPath>
</defs>
</svg>
